<svg width="212" height="112" viewBox="0 0 212 112" fill="none" xmlns="http://www.w3.org/2000/svg">
<path d="M6.88987 3.19461L6.08449 0.304744L0.304744 1.91551L1.11013 4.80539L6.88987 3.19461ZM98.5053 59.7705L97.5809 56.9165L98.5053 59.7705ZM212 112L211.63 77.361L181.817 95.0011L212 112ZM3.06874 10.9128L4.08742 13.7346L9.73093 11.6972L8.71225 8.87549L3.06874 10.9128ZM13.5163 19.8975L12.1487 17.2273L6.80843 19.9626L8.17606 22.6327L13.5163 19.8975ZM14.6987 33.6234L16.3907 36.1007L21.3454 32.7168L19.6534 30.2394L14.6987 33.6234ZM27.0689 39.6473L25.048 37.4301L20.6136 41.4719L22.6345 43.6891L27.0689 39.6473ZM32.0348 52.4932L34.3868 54.3554L38.1113 49.6513L35.7593 47.7891L32.0348 52.4932ZM45.6662 54.2607L43.0104 52.8653L40.2198 58.1768L42.8755 59.5722L45.6662 54.2607ZM54.923 64.4338L57.8045 65.2687L59.4744 59.5058L56.5929 58.6708L54.923 64.4338ZM68.184 60.7938L65.1941 60.547L64.7006 66.5267L67.6904 66.7735L68.184 60.7938ZM80.6076 66.6493L83.5934 66.3576L83.0101 60.386L80.0243 60.6777L80.6076 66.6493ZM91.7958 58.5895L88.888 59.3275L90.3641 65.1431L93.2719 64.4051L91.7958 58.5895ZM105.761 60.8181L108.673 60.0997L107.237 54.2743L104.324 54.9927L105.761 60.8181ZM118.151 52.6867L115.162 52.9451L115.678 58.9228L118.667 58.6644L118.151 52.6867ZM131.721 58.6186L134.712 58.859L135.193 52.8783L132.202 52.6379L131.721 58.6186ZM146.062 54.9304L143.153 54.1977L141.687 60.016L144.597 60.7487L146.062 54.9304ZM156.99 64.9411L159.75 66.1183L162.104 60.5995L159.345 59.4223L156.99 64.9411ZM171.776 65.8167L169.209 64.2634L166.103 69.3965L168.669 70.9498L171.776 65.8167ZM179.491 78.4811L181.844 80.3423L185.566 75.6367L183.213 73.7754L179.491 78.4811ZM193.602 83.0035L191.473 80.89L187.246 85.1482L189.375 87.2617L193.602 83.0035ZM198.268 97.086L200.16 99.414L204.816 95.6297L202.924 93.3016L198.268 97.086ZM211.083 104.563L209.469 102.035L204.412 105.264L206.027 107.793L211.083 104.563ZM1.11013 4.80539C1.65122 6.74691 2.30353 8.7932 3.06874 10.9128L8.71225 8.87549C7.99562 6.89042 7.38923 4.9864 6.88987 3.19461L1.11013 4.80539ZM8.17606 22.6327C10.0433 26.2782 12.2136 29.9847 14.6987 33.6234L19.6534 30.2394C17.3199 26.8227 15.2768 23.3345 13.5163 19.8975L8.17606 22.6327ZM22.6345 43.6891C25.483 46.8144 28.6131 49.7841 32.0348 52.4932L35.7593 47.7891C32.6138 45.2987 29.7188 42.5547 27.0689 39.6473L22.6345 43.6891ZM42.8755 59.5722C46.6282 61.5438 50.6424 63.1934 54.923 64.4338L56.5929 58.6708C52.7172 57.5478 49.0775 56.053 45.6662 54.2607L42.8755 59.5722ZM67.6904 66.7735C71.8075 67.1133 76.1127 67.0883 80.6076 66.6493L80.0243 60.6777C75.8781 61.0827 71.9334 61.1033 68.184 60.7938L67.6904 66.7735ZM93.2719 64.4051C95.2918 63.8924 97.3444 63.3 99.4297 62.6245L97.5809 56.9165C95.6152 57.5532 93.687 58.1095 91.7958 58.5895L93.2719 64.4051ZM99.4297 62.6245C101.565 61.9328 103.676 61.3323 105.761 60.8181L104.324 54.9927C102.098 55.5416 99.8504 56.1814 97.5809 56.9165L99.4297 62.6245ZM118.667 58.6644C123.15 58.2769 127.503 58.2794 131.721 58.6186L132.202 52.6379C127.656 52.2724 122.969 52.2701 118.151 52.6867L118.667 58.6644ZM144.597 60.7487C148.892 61.8307 153.027 63.2501 156.99 64.9411L159.345 59.4223C155.111 57.6159 150.679 56.0934 146.062 54.9304L144.597 60.7487ZM168.669 70.9498C172.486 73.2597 176.098 75.7969 179.491 78.4811L183.213 73.7754C179.639 70.9481 175.823 68.2658 171.776 65.8167L168.669 70.9498ZM189.375 87.2617C192.64 90.5032 195.61 93.8166 198.268 97.086L202.924 93.3016C200.139 89.8752 197.026 86.4026 193.602 83.0035L189.375 87.2617Z" fill="#323232"/>
</svg>
