<svg width="237" height="124" viewBox="0 0 237 124" fill="none" xmlns="http://www.w3.org/2000/svg">
<path d="M6.49973 3.95964L6.45937 0.959916L0.459916 1.04063L0.500271 4.04036L6.49973 3.95964ZM99.5 76.5L98.3555 73.7269L99.5 76.5ZM236 123.5L236.982 88.8729L206.503 105.336L236 123.5ZM0.758758 10.3934L0.95943 13.3866L6.94599 12.9853L6.74532 9.99202L0.758758 10.3934ZM8.15916 22.043L7.66302 19.0843L1.74564 20.0766L2.24178 23.0353L8.15916 22.043ZM4.98527 35.471L5.7854 38.3624L11.5681 36.7621L10.7679 33.8708L4.98527 35.471ZM14.6588 45.285L13.5154 42.5114L7.96824 44.7982L9.11163 47.5718L14.6588 45.285ZM14.8618 59.0836L16.4072 61.6549L21.5499 58.5641L20.0045 55.9928L14.8618 59.0836ZM27.0028 65.5397L24.9982 63.3078L20.5344 67.3171L22.539 69.549L27.0028 65.5397ZM32.3397 78.2334L34.8069 79.94L38.2202 75.0055L35.7529 73.2989L32.3397 78.2334ZM46.0748 78.6364L43.2554 77.6113L41.2052 83.2502L44.0247 84.2753L46.0748 78.6364ZM56.8131 87.2187L59.7952 87.5464L60.4504 81.5823L57.4684 81.2546L56.8131 87.2187ZM69.27 81.3493L66.2808 81.6035L66.7892 87.5819L69.7784 87.3277L69.27 81.3493ZM82.4578 85.2503L85.3766 84.557L83.99 78.7194L81.0712 79.4127L82.4578 85.2503ZM92.6574 75.9301L89.8347 76.946L91.8665 82.5915L94.6893 81.5756L92.6574 75.9301ZM106.749 76.9074L109.57 75.886L107.527 70.2445L104.707 71.2659L106.749 76.9074ZM117.724 67.2445L114.817 67.9856L116.299 73.7996L119.206 73.0586L117.724 67.2445ZM131.941 70.5436L134.913 70.131L134.087 64.188L131.116 64.6007L131.941 70.5436ZM144.753 63.5534L141.753 63.5933L141.833 69.5928L144.833 69.5528L144.753 63.5534ZM157.739 70.2461L160.716 70.6115L161.447 64.6561L158.469 64.2908L157.739 70.2461ZM171.95 66.9153L169.053 66.1356L167.493 71.9294L170.39 72.7092L171.95 66.9153ZM182.576 76.9314L185.335 78.1098L187.692 72.592L184.933 71.4136L182.576 76.9314ZM197.151 77.6512L194.577 76.1106L191.496 81.2591L194.07 82.7997L197.151 77.6512ZM204.713 90.1433L207.069 92.0002L210.783 87.2876L208.426 85.4308L204.713 90.1433ZM218.636 94.5411L216.522 92.4125L212.265 96.6406L214.379 98.7692L218.636 94.5411ZM222.958 108.502L224.803 110.867L229.533 107.175L227.688 104.81L222.958 108.502ZM235.42 116.119L233.895 113.536L228.728 116.587L230.254 119.17L235.42 116.119ZM0.500271 4.04036C0.527731 6.08153 0.612094 8.20569 0.758758 10.3934L6.74532 9.99202C6.60569 7.90928 6.52572 5.89205 6.49973 3.95964L0.500271 4.04036ZM2.24178 23.0353C2.92697 27.1214 3.83119 31.3007 4.98527 35.471L10.7679 33.8708C9.67334 29.9154 8.81262 25.9399 8.15916 22.043L2.24178 23.0353ZM9.11163 47.5718C10.7459 51.536 12.6521 55.4068 14.8618 59.0836L20.0045 55.9928C17.9666 52.6019 16.1919 49.004 14.6588 45.285L9.11163 47.5718ZM22.539 69.549C25.4448 72.7842 28.7011 75.7167 32.3397 78.2334L35.7529 73.2989C32.5321 71.0711 29.6234 68.4574 27.0028 65.5397L22.539 69.549ZM44.0247 84.2753C47.9756 85.7117 52.2337 86.7156 56.8131 87.2187L57.4684 81.2546C53.353 80.8024 49.564 79.905 46.0748 78.6364L44.0247 84.2753ZM69.7784 87.3277C73.8048 86.9853 78.0285 86.3024 82.4578 85.2503L81.0712 79.4127C76.9081 80.4016 72.9782 81.0339 69.27 81.3493L69.7784 87.3277ZM94.6893 81.5756C96.6385 80.874 98.6234 80.1072 100.644 79.2731L98.3555 73.7269C96.4162 74.5272 94.5171 75.2608 92.6574 75.9301L94.6893 81.5756ZM100.644 79.2731C102.703 78.4237 104.738 77.6359 106.749 76.9074L104.707 71.2659C102.611 72.0248 100.494 72.8445 98.3555 73.7269L100.644 79.2731ZM119.206 73.0586C123.572 71.9458 127.817 71.1164 131.941 70.5436L131.116 64.6007C126.765 65.2049 122.301 66.0779 117.724 67.2445L119.206 73.0586ZM144.833 69.5528C149.293 69.4934 153.595 69.7377 157.739 70.2461L158.469 64.2908C154.057 63.7494 149.484 63.4904 144.753 63.5534L144.833 69.5528ZM170.39 72.7092C174.647 73.8548 178.709 75.2798 182.576 76.9314L184.933 71.4136C180.816 69.6553 176.487 68.1367 171.95 66.9153L170.39 72.7092ZM194.07 82.7997C197.855 85.0648 201.404 87.5359 204.713 90.1433L208.426 85.4308C204.927 82.6733 201.168 80.055 197.151 77.6512L194.07 82.7997ZM214.379 98.7692C217.559 101.971 220.42 105.25 222.958 108.502L227.688 104.81C225.009 101.378 221.991 97.9189 218.636 94.5411L214.379 98.7692Z" fill="#323232"/>
</svg>
