<svg width="207" height="145" viewBox="0 0 207 145" fill="none" xmlns="http://www.w3.org/2000/svg">
<path d="M203.634 6.93217L206.567 6.29782L205.298 0.433484L202.366 1.06783L203.634 6.93217ZM94.795 77.2937L97.7949 77.2658L94.795 77.2937ZM0 128L30.469 144.481L29.5079 109.854L0 128ZM6.0155 130.834L9.01249 130.7L8.74398 124.706L5.74698 124.84L6.0155 130.834ZM17.3182 123.966L14.3347 124.28L14.962 130.247L17.9456 129.933L17.3182 123.966ZM29.8013 128.338L32.7614 127.85L31.7855 121.929L28.8254 122.417L29.8013 128.338ZM40.1981 120.17L37.276 120.85L38.6348 126.694L41.5569 126.014L40.1981 120.17ZM53.1534 122.851L56.0131 121.944L54.1996 116.225L51.3399 117.132L53.1534 122.851ZM62.0977 113.138L59.3452 114.331L61.7312 119.836L64.4838 118.643L62.0977 113.138ZM75.3324 113.056L77.8895 111.487L74.7518 106.373L72.1947 107.941L75.3324 113.056ZM81.096 101.224L78.915 103.284L83.0348 107.646L85.2158 105.586L81.096 101.224ZM93.0819 95.7088L94.5634 93.1001L89.346 90.1372L87.8645 92.7459L93.0819 95.7088ZM91.4015 82.7048L90.9271 85.667L96.8516 86.6158L97.326 83.6535L91.4015 82.7048ZM98.4038 71.0039L99.0066 68.0651L93.1289 66.8595L92.5262 69.7983L98.4038 71.0039ZM98.1882 56.0646L96.5935 58.6056L101.675 61.7951L103.27 59.2541L98.1882 56.0646ZM111.609 49.093L113.75 46.9916L109.548 42.7095L107.406 44.8109L111.609 49.093ZM118.377 35.6396L115.947 37.3989L119.465 42.2588L121.895 40.4995L118.377 35.6396ZM133.291 33.1529L135.888 31.6507L132.884 26.4571L130.287 27.9593L133.291 33.1529ZM142.756 21.3872L140.053 22.6894L142.658 28.0947L145.36 26.7925L142.756 21.3872ZM157.869 21.2347L160.644 20.0962L158.368 14.545L155.592 15.6835L157.869 21.2347ZM168.7 10.6995L165.87 11.6957L167.863 17.3553L170.693 16.3591L168.7 10.6995ZM183.747 12.1063L186.62 11.2438L184.895 5.49715L182.022 6.35965L183.747 12.1063ZM195.536 2.65425L192.624 3.37454L194.064 9.19903L196.977 8.47874L195.536 2.65425ZM17.9456 129.933C21.7752 129.531 25.7549 129.005 29.8013 128.338L28.8254 122.417C24.9013 123.064 21.038 123.575 17.3182 123.966L17.9456 129.933ZM41.5569 126.014C45.4526 125.109 49.3425 124.059 53.1534 122.851L51.3399 117.132C47.6948 118.287 43.9579 119.296 40.1981 120.17L41.5569 126.014ZM64.4838 118.643C68.2906 116.993 71.9383 115.138 75.3324 113.056L72.1947 107.941C69.0768 109.854 65.6859 111.583 62.0977 113.138L64.4838 118.643ZM85.2158 105.586C88.3308 102.644 91.0069 99.3628 93.0819 95.7088L87.8645 92.7459C86.1232 95.8122 83.8397 98.633 81.096 101.224L85.2158 105.586ZM97.326 83.6535C97.6554 81.5963 97.8153 79.4672 97.7949 77.2658L91.7951 77.3215C91.8125 79.1952 91.6764 80.9881 91.4015 82.7048L97.326 83.6535ZM97.7949 77.2658C97.7751 75.1353 97.9844 73.0489 98.4038 71.0039L92.5262 69.7983C92.0235 72.2488 91.7713 74.7579 91.7951 77.3215L97.7949 77.2658ZM103.27 59.2541C105.472 55.7456 108.286 52.3551 111.609 49.093L107.406 44.8109C103.814 48.3367 100.684 52.0874 98.1882 56.0646L103.27 59.2541ZM121.895 40.4995C125.446 37.9284 129.272 35.478 133.291 33.1529L130.287 27.9593C126.117 30.3715 122.116 32.9319 118.377 35.6396L121.895 40.4995ZM145.36 26.7925C149.462 24.8163 153.656 22.9627 157.869 21.2347L155.592 15.6835C151.28 17.4522 146.976 19.3541 142.756 21.3872L145.36 26.7925ZM170.693 16.3591C175.145 14.7917 179.527 13.373 183.747 12.1063L182.022 6.35965C177.717 7.65193 173.246 9.09949 168.7 10.6995L170.693 16.3591ZM196.977 8.47874C199.308 7.90226 201.534 7.38654 203.634 6.93217L202.366 1.06783C200.205 1.53519 197.921 2.06429 195.536 2.65425L196.977 8.47874Z" fill="#323232"/>
</svg>
