<svg width="41" height="40" viewBox="0 0 41 40" fill="none" xmlns="http://www.w3.org/2000/svg">
<path fill-rule="evenodd" clip-rule="evenodd" d="M11.7697 1.77864C12.3926 1.27485 13.1695 1 13.9706 1H26.5014C26.999 1 27.4815 1.1707 27.8684 1.48361L37.7038 9.4382C38.5255 10.1027 39.0029 11.1028 39.0029 12.1596V27.8411C39.0029 28.8978 38.5255 29.8979 37.7038 30.5624L27.8684 38.517C27.4816 38.8298 26.9992 39.0003 26.5017 39V39.0006H13.9706C13.1695 39.0006 12.3926 38.7258 11.7697 38.222L2.29905 30.5624C1.47742 29.8979 1 28.8978 1 27.8411V12.1596C1 11.1028 1.47742 10.1027 2.29905 9.4382L11.7697 1.77864ZM26.7385 39.9913V40.0006H13.9706C12.9406 40.0006 11.9417 39.6472 11.1408 38.9995L1.6702 31.3399C0.613826 30.4856 0 29.1997 0 27.8411V12.1596C0 10.8009 0.613827 9.51503 1.6702 8.66067L11.1408 1.00111C11.9417 0.353372 12.9406 0 13.9706 0H26.5014H26.7385V0.00886614C27.3801 0.0569224 27.9941 0.299131 28.4972 0.706074L38.3327 8.66067C39.389 9.51503 40.0029 10.8009 40.0029 12.1596V27.8411C40.0029 29.1997 39.389 30.4856 38.3327 31.3399L28.4972 39.2945C27.9941 39.7015 27.3801 39.9435 26.7385 39.9913Z" fill="white"/>
<path d="M13 13L27 27" stroke="white" stroke-linecap="round"/>
<path d="M27 13L13 27" stroke="white" stroke-linecap="round"/>
</svg>
