<svg width="42" height="40" viewBox="0 0 42 40" fill="none" xmlns="http://www.w3.org/2000/svg">
<path fill-rule="evenodd" clip-rule="evenodd" d="M12.7682 1.77864C13.3911 1.27485 14.168 1 14.9692 1H27.4999C27.9975 1 28.4801 1.1707 28.8669 1.48361L38.7024 9.4382C39.524 10.1027 40.0014 11.1028 40.0014 12.1596V27.8411C40.0014 28.8978 39.524 29.8979 38.7024 30.5624L28.8669 38.517C28.4802 38.8298 27.9977 39.0003 27.5003 39V39.0006H14.9692C14.168 39.0006 13.3911 38.7258 12.7682 38.222L3.29758 30.5624C2.47596 29.8979 1.99854 28.8978 1.99854 27.8411V12.1596C1.99854 11.1028 2.47596 10.1027 3.29758 9.4382L12.7682 1.77864ZM27.7371 39.9913V40.0006H14.9692C13.9391 40.0006 12.9403 39.6472 12.1394 38.9995L2.66874 31.3399C1.61236 30.4856 0.998535 29.1997 0.998535 27.8411V12.1596C0.998535 10.8009 1.61236 9.51503 2.66874 8.66067L12.1394 1.00111C12.9403 0.353372 13.9391 0 14.9692 0H27.4999H27.7371V0.00886614C28.3787 0.0569224 28.9926 0.299131 29.4958 0.706074L39.3312 8.66067C40.3876 9.51503 41.0014 10.8009 41.0014 12.1596V27.8411C41.0014 29.1997 40.3876 30.4856 39.3312 31.3399L29.4958 39.2945C28.9926 39.7015 28.3786 39.9435 27.7371 39.9913Z" fill="white"/>
<path d="M17 18H31" stroke="white" stroke-linecap="round"/>
<path d="M11 22L31 22" stroke="white" stroke-linecap="round"/>
</svg>
