<svg width="30" height="40" viewBox="0 0 30 40" fill="none" xmlns="http://www.w3.org/2000/svg">
<path d="M12.5523 22.0906L11.6108 22.9018L14.0585 24.3371L15.0627 25.9595L16.0041 24.3371L18.5774 22.9018L17.5104 22.0906L15.0627 22.9018L12.5523 22.0906Z" fill="#878787"/>
<path d="M11.8619 39.8128L11.5481 36.5678L14.9372 40L18.3891 36.5678L18.2008 39.8128L20.6485 34.9454L19.9581 31.9501L14.9372 29.8284L10.0418 31.9501L9.41418 34.9454L11.8619 39.8128Z" fill="#878787"/>
<path d="M7.57829 0L1.4405 5.42902L1.75365 9.60999L4.13361 7.3635L9.01879 10.7956L11.7119 9.60999L8.8309 16.9111L9.01879 13.9782H5.01044L2.12944 11.17L0 14.727L3.06889 18.908L2.31733 21.2169L6.82672 19.5944L4.19624 24.3994L7.82881 31.0765L14.0919 27.9563V25.9594L9.01879 21.3417L10.2088 20.78L15.0939 21.9033L19.7286 20.78L21.0438 21.3417L16.0334 25.9594V27.9563L22.2965 31.0765L25.929 24.3994L23.2985 19.5944L27.8079 21.2169L26.9311 18.908L30 14.727L27.8706 11.17L24.9269 13.9782L20.9812 13.791L21.1691 16.9111L18.3507 9.60999L21.1065 10.7956L25.8664 7.3635L28.4342 9.60999L28.6848 5.42902L22.4217 0L14.9687 1.74727L7.57829 0Z" fill="white"/>
<path d="M5.08383 9.2356L3.89136 10.0249L4.6445 11.1785L8.41019 11.4821L5.08383 9.2356Z" fill="#878787"/>
<path d="M24.9168 9.2356L26.1093 10.0249L25.3561 11.1785L21.5904 11.4821L24.9168 9.2356Z" fill="#878787"/>
</svg>
